<?xml version="1.0" encoding="UTF-8" standalone="no"?>
<svg
   viewBox="0 0 24 24"
   version="1.1"
   id="svg43"
   sodipodi:docname="bookmark_unmarked.svg"
   inkscape:version="1.2.1 (1:1.2.1+202210291243+9c6d41e410)"
   xmlns:inkscape="http://www.inkscape.org/namespaces/inkscape"
   xmlns:sodipodi="http://sodipodi.sourceforge.net/DTD/sodipodi-0.dtd"
   xmlns="http://www.w3.org/2000/svg"
   xmlns:svg="http://www.w3.org/2000/svg">
  <defs
     id="defs47" />
  <sodipodi:namedview
     id="namedview45"
     pagecolor="#ffffff"
     bordercolor="#000000"
     borderopacity="0.25"
     inkscape:showpageshadow="2"
     inkscape:pageopacity="0.0"
     inkscape:pagecheckerboard="0"
     inkscape:deskcolor="#d1d1d1"
     showgrid="false"
     inkscape:zoom="35.416667"
     inkscape:cx="12"
     inkscape:cy="12"
     inkscape:window-width="1920"
     inkscape:window-height="1043"
     inkscape:window-x="1920"
     inkscape:window-y="0"
     inkscape:window-maximized="1"
     inkscape:current-layer="svg43" />
  <g
     data-name="Layer 2"
     id="g41"
     style="fill:#7f8a7f;fill-opacity:1">
    <path
       d="M6.09 21.06a1 1 0 0 1-1-1L4.94 5.4a2.26 2.26 0 0 1 2.18-2.35L16.71 3a2.27 2.27 0 0 1 2.23 2.31l.14 14.66a1 1 0 0 1-.49.87 1 1 0 0 1-1 0l-5.7-3.16-5.29 3.23a1.2 1.2 0 0 1-.51.15zm5.76-5.55a1.11 1.11 0 0 1 .5.12l4.71 2.61-.12-12.95c0-.2-.13-.34-.21-.33l-9.6.09c-.08 0-.19.13-.19.33l.12 12.9 4.28-2.63a1.06 1.06 0 0 1 .51-.14z"
       data-name="bookmark"
       id="path39"
       style="fill:#7f8a7f;fill-opacity:1" />
  </g>
</svg>
