<?xml version="1.0" encoding="UTF-8" standalone="no"?>
<!-- Uploaded to: SVG Repo, www.svgrepo.com, Generator: SVG Repo Mixer Tools -->

<svg
   fill="#7f8a7f"
   height="800px"
   width="800px"
   version="1.1"
   id="Capa_1"
   viewBox="0 0 471.701 471.701"
   xml:space="preserve"
   sodipodi:docname="filled_heart.svg"
   inkscape:version="1.2.1 (1:1.2.1+202210291243+9c6d41e410)"
   xmlns:inkscape="http://www.inkscape.org/namespaces/inkscape"
   xmlns:sodipodi="http://sodipodi.sourceforge.net/DTD/sodipodi-0.dtd"
   xmlns:xlink="http://www.w3.org/1999/xlink"
   xmlns="http://www.w3.org/2000/svg"
   xmlns:svg="http://www.w3.org/2000/svg"><defs
   id="defs61"><linearGradient
     inkscape:collect="always"
     id="linearGradient1170"><stop
       style="stop-color:#7f8a7f;stop-opacity:1;"
       offset="0"
       id="stop1166" /><stop
       style="stop-color:#7f8a7f;stop-opacity:0;"
       offset="1"
       id="stop1168" /></linearGradient><linearGradient
     inkscape:collect="always"
     xlink:href="#linearGradient1170"
     id="linearGradient1172"
     x1="0.00045242829"
     y1="235.851"
     x2="471.70155"
     y2="235.851"
     gradientUnits="userSpaceOnUse" /></defs><sodipodi:namedview
   id="namedview59"
   pagecolor="#ffffff"
   bordercolor="#000000"
   borderopacity="0.25"
   inkscape:showpageshadow="2"
   inkscape:pageopacity="0.0"
   inkscape:pagecheckerboard="0"
   inkscape:deskcolor="#d1d1d1"
   showgrid="false"
   inkscape:zoom="1.0625"
   inkscape:cx="379.29412"
   inkscape:cy="368.47059"
   inkscape:window-width="1846"
   inkscape:window-height="1016"
   inkscape:window-x="74"
   inkscape:window-y="561"
   inkscape:window-maximized="1"
   inkscape:current-layer="Capa_1" />
<g
   id="g56"
   style="fill-opacity:1;fill:#b93e55">
	<path
   d="M433.601,67.001c-24.7-24.7-57.4-38.2-92.3-38.2s-67.7,13.6-92.4,38.3l-12.9,12.9l-13.1-13.1   c-24.7-24.7-57.6-38.4-92.5-38.4c-34.8,0-67.6,13.6-92.2,38.2c-24.7,24.7-38.3,57.5-38.2,92.4c0,34.9,13.7,67.6,38.4,92.3   l187.8,187.8c2.6,2.6,6.1,4,9.5,4c3.4,0,6.9-1.3,9.5-3.9l188.2-187.5c24.7-24.7,38.3-57.5,38.3-92.4   C471.801,124.501,458.301,91.701,433.601,67.001z M414.401,232.701l-178.7,178l-178.3-178.3c-19.6-19.6-30.4-45.6-30.4-73.3   s10.7-53.7,30.3-73.2c19.5-19.5,45.5-30.3,73.1-30.3c27.7,0,53.8,10.8,73.4,30.4l22.6,22.6c5.3,5.3,13.8,5.3,19.1,0l22.4-22.4   c19.6-19.6,45.7-30.4,73.3-30.4c27.6,0,53.6,10.8,73.2,30.3c19.6,19.6,30.3,45.6,30.3,73.3   C444.801,187.101,434.001,213.101,414.401,232.701z"
   id="path54"
   style="fill-opacity:1;fill:#b93e55" />
</g>
<ellipse
   style="fill:#b93e55;fill-opacity:1;stroke:none;stroke-width:0;stroke-linecap:round"
   id="path471-3"
   transform="scale(1,-1)"
   ry="118.67297"
   rx="117.58487"
   cy="-164.22282"
   cx="337.96054" /><ellipse
   style="fill:#b93e55;fill-opacity:1;stroke:none;stroke-width:0;stroke-linecap:round"
   id="path471-3-6"
   transform="scale(1,-1)"
   ry="118.67297"
   rx="117.58487"
   cy="-163.38297"
   cx="134.36255" /><path
   style="fill:#b93e55;fill-opacity:1;stroke:none;stroke-width:0;stroke-linecap:round"
   d="M 47.445251,220.19288 233.5476,436.90689 435.55387,218.77146 Z"
   id="path1280" /></svg>
